<?xml version="1.0" standalone="no"?>
<!DOCTYPE svg PUBLIC "-//W3C//DTD SVG 20010904//EN"
 "http://www.w3.org/TR/2001/REC-SVG-20010904/DTD/svg10.dtd">
<svg version="1.0" xmlns="http://www.w3.org/2000/svg"
 width="512.000000pt" height="512.000000pt" viewBox="0 0 512.000000 512.000000"
 preserveAspectRatio="xMidYMid meet">

<g transform="translate(0.000000,512.000000) scale(0.100000,-0.100000)"
fill="#000000" stroke="none">
<path d="M3160 4140 l0 -340 430 0 430 0 0 340 0 340 -430 0 -430 0 0 -340z"/>
<path d="M52 3930 c-55 -22 -52 53 -50 -1669 l3 -1589 24 -26 24 -26 1989 0
1988 0 0 50 c0 46 -3 51 -27 61 -59 22 -103 86 -103 149 l0 30 -1774 0 -1773
0 -27 26 -26 27 0 1313 0 1313 24 28 24 28 231 3 231 3 0 145 0 144 -367 -1
c-203 0 -378 -4 -391 -9z"/>
<path d="M4310 3796 l0 -145 231 -3 231 -3 24 -28 24 -28 0 -1313 0 -1313 -26
-27 c-25 -24 -33 -26 -115 -26 l-89 0 0 -35 c0 -61 -44 -122 -102 -144 -25
-10 -28 -15 -28 -61 l0 -50 303 0 304 0 24 26 24 26 3 1589 c2 1734 5 1647
-53 1669 -16 6 -174 10 -391 10 l-364 0 0 -144z"/>
<path d="M1990 415 l0 -195 -137 0 c-154 0 -199 -9 -232 -44 -27 -28 -32 -82
-12 -120 31 -58 0 -56 951 -56 951 0 920 -2 951 56 20 38 15 92 -12 120 -33
35 -78 44 -231 44 l-138 0 0 195 0 195 -570 0 -570 0 0 -195z"/>
</g>
</svg>
